<?xml version="1.0" encoding="UTF-8"?> <svg xmlns="http://www.w3.org/2000/svg" width="109" height="29" viewBox="0 0 109 29" fill="none"><g clip-path="url(#clip0)"><path d="M34.0221 0V17.9832H39.013V11.0266L41.0385 11.0325L49.1603 17.9872H55.4655L45.1211 8.99063L55.0556 0H48.8825L40.8632 7.10823L38.948 7.1102V0H34.0221Z" fill="#8A2432"></path><path d="M73.7563 0H57.2053V17.9832H73.7563V14.2421H61.9342V11.0404H73.2972V7.11807H61.9677V3.9046H73.7563V0Z" fill="#8A2432"></path><path d="M96.7779 12.0269V17.9832H91.7535V13.0606C91.7535 10.9931 90.2264 11.0266 90.2264 11.0266H82.0495V17.9832H77.1729V0H90.2264C90.2264 0 95.0243 0.0374116 96.1375 2.23092C96.9749 3.88097 96.8271 6.66323 95.8912 7.69697C95.8912 7.69697 94.8568 9.01032 93.5268 9.23873C93.5268 9.23873 94.9395 9.26039 95.9562 10.1071C95.9562 10.109 96.772 10.682 96.7779 12.0269ZM91.6904 5.17069C91.6274 3.22135 89.0442 3.41234 89.0442 3.41234H81.951V7.10429H90.3742C90.3742 7.10626 91.7535 7.1417 91.6904 5.17069Z" fill="#8A2432"></path><path d="M100.451 0V8.82917L105.191 2.2388V0H100.451Z" fill="#A7A9AC"></path><path d="M100.451 11.1428V17.9832H105.191V4.41455L100.451 11.1428Z" fill="#8A2432"></path><path d="M34.1699 22.2421C33.7896 23.0849 33.831 24.0458 34.292 24.7763C34.8477 25.6525 36.8535 25.5895 36.8535 25.5895L38.9224 25.7372C39.1765 25.7648 39.943 25.7963 39.9391 26.7572C39.9371 27.5507 38.8928 27.5211 38.8928 27.5211H36.5737C35.6969 27.4936 35.7816 26.3909 35.7816 26.3909H33.829C33.829 26.3909 33.431 28.7006 35.9136 28.929H39.3913C39.3913 28.929 41.2671 28.9507 41.6316 27.4601C41.7853 26.8339 41.8444 25.9302 41.4838 25.1957C41.0267 24.2643 38.7982 24.2801 38.7982 24.2801H36.9343C36.6801 24.2525 35.8131 24.3136 35.8683 23.522C35.9255 22.7305 36.9619 22.7521 36.9619 22.7521H38.8869C39.7637 22.7797 39.679 23.6854 39.679 23.6854H41.6316C41.6316 23.6854 41.7873 22.3977 41.0661 21.8227C40.343 21.2478 39.5056 21.1178 38.4554 21.1001H36.5185C36.5166 21.1021 34.6625 21.1513 34.1699 22.2421Z" fill="#A7A9AC"></path><path d="M53.7946 22.2421C53.4143 23.0849 53.4557 24.0458 53.9168 24.7763C54.4724 25.6525 56.4782 25.5895 56.4782 25.5895L58.5471 25.7372C58.8013 25.7648 59.5658 25.7963 59.5638 26.7572C59.5618 27.5507 58.5176 27.5211 58.5176 27.5211H56.1985C55.3216 27.4936 55.4064 26.3909 55.4064 26.3909H53.4538C53.4538 26.3909 53.0557 28.7006 55.5384 28.929H59.0161C59.0161 28.929 60.8918 28.9507 61.2563 27.4601C61.41 26.8339 61.4691 25.9302 61.1086 25.1957C60.6514 24.2643 58.423 24.2801 58.423 24.2801H56.559C56.3049 24.2525 55.4379 24.3136 55.4931 23.522C55.5502 22.7305 56.5866 22.7521 56.5866 22.7521H58.5116C59.3885 22.7797 59.3037 23.6854 59.3037 23.6854H61.2563C61.2563 23.6854 61.412 22.3977 60.6909 21.8227C59.9677 21.2478 59.1303 21.1178 58.0801 21.1001H56.1433C56.1413 21.1021 54.2872 21.1513 53.7946 22.2421Z" fill="#A7A9AC"></path><path d="M97.7039 22.2421C97.3237 23.0849 97.365 24.0458 97.8261 24.7763C98.3817 25.6525 100.388 25.5895 100.388 25.5895L102.456 25.7372C102.711 25.7648 103.477 25.7963 103.473 26.7572C103.471 27.5507 102.427 27.5211 102.427 27.5211H100.108C99.231 27.4936 99.3157 26.3909 99.3157 26.3909H97.3631C97.3631 26.3909 96.965 28.7006 99.4477 28.929H102.925C102.925 28.929 104.801 28.9507 105.168 27.4601C105.321 26.8339 105.38 25.9302 105.02 25.1957C104.563 24.2643 102.334 24.2801 102.334 24.2801H100.47C100.216 24.2525 99.3492 24.3136 99.4043 23.522C99.4615 22.7305 100.498 22.7521 100.498 22.7521H102.423C103.3 22.7797 103.215 23.6854 103.215 23.6854H105.168C105.168 23.6854 105.323 22.3977 104.6 21.8227C103.877 21.2478 103.04 21.1178 101.989 21.1001H100.053C100.053 21.1021 98.1965 21.1513 97.7039 22.2421Z" fill="#A7A9AC"></path><path d="M43.0976 21.1023L46.6226 25.9678V28.9292H48.6126V25.9678L52.2223 21.1023H49.8914L47.659 24.3748L45.399 21.1023H43.0976Z" fill="#A7A9AC"></path><path d="M63.6227 21.1023V22.8705H66.4659V28.9292H68.454V22.8705H71.3268V21.1023H63.6227Z" fill="#A7A9AC"></path><path d="M73.7996 21.1023V28.9292H80.5362V27.3304L75.7187 27.3363V25.7118H80.2505V24.2114H75.7187V22.8823H80.5362V21.1023H73.7996Z" fill="#A7A9AC"></path><path d="M83.7972 28.9292V21.2086H86.999L89.1172 26.5487L91.5308 21.1023H94.4864V28.9292H92.5909V23.1028L90.0531 28.9292H88.2797L85.7183 23.1284V28.9292H83.7972Z" fill="#A7A9AC"></path><path d="M0 0V22.0532L16.1569 0H0Z" fill="#8A2432"></path><path d="M20.5567 18.377L13.2014 28.929H28.176L20.5567 18.377Z" fill="#8A2432"></path><path d="M0 28.9999L21.8059 0.0727539H28.1761L7.61936 28.9999H0Z" fill="#A7A9AC"></path><path d="M106.699 1.4413L106.917 0.167336H106.531L106.559 0.00390625H107.485L107.457 0.167336H107.073L106.856 1.4413H106.699Z" fill="#9A9A99"></path><path d="M107.495 1.46106L107.759 0.0256348H107.973L108.111 0.95699C108.129 1.08104 108.141 1.19721 108.147 1.30945C108.184 1.21297 108.243 1.08104 108.328 0.917609L108.783 0.0276038H109L108.742 1.46303H108.57L108.7 0.764024C108.73 0.602563 108.773 0.421412 108.831 0.22057C108.793 0.315083 108.746 0.413535 108.691 0.521833L108.208 1.46106H108.04L107.902 0.539554C107.891 0.458823 107.881 0.360371 107.875 0.244198C107.861 0.366278 107.847 0.466699 107.834 0.543492L107.664 1.45909H107.495V1.46106Z" fill="#9A9A99"></path></g><defs><clipPath id="clip0"><rect width="109" height="29" fill="white"></rect></clipPath></defs></svg> 